<svg width="70" height="71" viewBox="0 0 70 71" fill="none" xmlns="http://www.w3.org/2000/svg">
<g clip-path="url(#clip0_32_3)">
<rect y="0.294434" width="70" height="70" rx="11" fill="transparent"/>
<path d="M19.2812 39.7855C21.7616 39.7855 23.7723 37.7748 23.7723 35.2944C23.7723 32.8141 21.7616 30.8033 19.2812 30.8033C16.8009 30.8033 14.7902 32.8141 14.7902 35.2944C14.7902 37.7748 16.8009 39.7855 19.2812 39.7855Z" stroke="#344655" stroke-width="3"/>
<path d="M50.7188 24.0667C53.1991 24.0667 55.2098 22.056 55.2098 19.5757C55.2098 17.0953 53.1991 15.0846 50.7188 15.0846C48.2384 15.0846 46.2277 17.0953 46.2277 19.5757C46.2277 22.056 48.2384 24.0667 50.7188 24.0667Z" stroke="#344655" stroke-width="3"/>
<path d="M50.7188 39.7855C53.1991 39.7855 55.2098 37.7748 55.2098 35.2944C55.2098 32.8141 53.1991 30.8033 50.7188 30.8033C48.2384 30.8033 46.2277 32.8141 46.2277 35.2944C46.2277 37.7748 48.2384 39.7855 50.7188 39.7855Z" stroke="#344655" stroke-width="3"/>
<path d="M50.7188 55.5042C53.1991 55.5042 55.2098 53.4935 55.2098 51.0131C55.2098 48.5328 53.1991 46.522 50.7188 46.522C48.2384 46.522 46.2277 48.5328 46.2277 51.0131C46.2277 53.4935 48.2384 55.5042 50.7188 55.5042Z" stroke="#344655" stroke-width="3"/>
<path d="M46.2277 51.0131H36.5723C34.4638 51.0131 32.7545 49.3038 32.7545 47.1953V23.3934C32.7545 21.2849 34.4637 19.5756 36.5723 19.5756H46.2277M23.7723 35.2944H46.2277" stroke="#344655" stroke-width="3" stroke-linecap="round" stroke-linejoin="round"/>
</g>
<defs>
<clipPath id="clip0_32_3">
<rect width="70" height="70" fill="white" transform="translate(0 0.294434)"/>
</clipPath>
</defs>
</svg>
